<?xml version="1.0" encoding="UTF-8" standalone="no"?>
<svg
   xmlns:dc="http://purl.org/dc/elements/1.1/"
   xmlns:cc="http://creativecommons.org/ns#"
   xmlns:rdf="http://www.w3.org/1999/02/22-rdf-syntax-ns#"
   xmlns:svg="http://www.w3.org/2000/svg"
   xmlns="http://www.w3.org/2000/svg"
   xmlns:sodipodi="http://sodipodi.sourceforge.net/DTD/sodipodi-0.dtd"
   xmlns:inkscape="http://www.inkscape.org/namespaces/inkscape"
   version="1.1"
   id="Capa_1"
   x="0px"
   y="0px"
   viewBox="0 0 776.31921 784.67138"
   xml:space="preserve"
   sodipodi:docname="logo.svg"
   inkscape:version="1.0.2 (e86c870879, 2021-01-15)"
   width="776.31921"
   height="784.67139"
   inkscape:export-filename="/home/andrea/Projects/Unity/Up the Drain/Assets/Sprites/logo.png"
   inkscape:export-xdpi="96"
   inkscape:export-ydpi="96"><metadata
   id="metadata158"><rdf:RDF><cc:Work
       rdf:about=""><dc:format>image/svg+xml</dc:format><dc:type
         rdf:resource="http://purl.org/dc/dcmitype/StillImage" /><dc:title></dc:title></cc:Work></rdf:RDF></metadata><defs
   id="defs156"><inkscape:path-effect
   effect="bspline"
   id="path-effect1013"
   is_visible="true"
   lpeversion="1"
   weight="33.333333"
   steps="2"
   helper_size="0"
   apply_no_weight="true"
   apply_with_weight="true"
   only_selected="false" /><inkscape:path-effect
   effect="bspline"
   id="path-effect1009"
   is_visible="true"
   lpeversion="1"
   weight="33.333333"
   steps="2"
   helper_size="0"
   apply_no_weight="true"
   apply_with_weight="true"
   only_selected="false" /><inkscape:path-effect
   effect="bspline"
   id="path-effect1005"
   is_visible="true"
   lpeversion="1"
   weight="33.333333"
   steps="2"
   helper_size="0"
   apply_no_weight="true"
   apply_with_weight="true"
   only_selected="false" /><inkscape:path-effect
   effect="bspline"
   id="path-effect1001"
   is_visible="true"
   lpeversion="1"
   weight="33.333333"
   steps="2"
   helper_size="0"
   apply_no_weight="true"
   apply_with_weight="true"
   only_selected="false" /><inkscape:path-effect
   effect="bspline"
   id="path-effect997"
   is_visible="true"
   lpeversion="1"
   weight="33.333333"
   steps="2"
   helper_size="0"
   apply_no_weight="true"
   apply_with_weight="true"
   only_selected="false" /><inkscape:path-effect
   effect="bspline"
   id="path-effect993"
   is_visible="true"
   lpeversion="1"
   weight="33.333333"
   steps="2"
   helper_size="0"
   apply_no_weight="true"
   apply_with_weight="true"
   only_selected="false" />
	
	
	
	
	
	
	
	
	
</defs><sodipodi:namedview
   pagecolor="#ffffff"
   bordercolor="#666666"
   borderopacity="1"
   objecttolerance="10"
   gridtolerance="10"
   guidetolerance="10"
   inkscape:pageopacity="0"
   inkscape:pageshadow="2"
   inkscape:window-width="1920"
   inkscape:window-height="1024"
   id="namedview154"
   showgrid="false"
   inkscape:zoom="0.70710678"
   inkscape:cx="241.40047"
   inkscape:cy="247.0549"
   inkscape:window-x="0"
   inkscape:window-y="0"
   inkscape:window-maximized="1"
   inkscape:current-layer="Capa_1"
   fit-margin-top="0"
   fit-margin-left="0"
   fit-margin-right="0"
   fit-margin-bottom="0"
   inkscape:document-rotation="0"><inkscape:grid
     type="xygrid"
     id="grid985"
     originx="-130.37654"
     originy="287.82888" /></sodipodi:namedview>

<path
   id="path1074"
   style="display:none;fill:#1239e6;fill-opacity:1;stroke:#000000;stroke-width:14.7;stroke-miterlimit:4;stroke-dasharray:none;stroke-opacity:1;paint-order:stroke fill markers"
   d="M 204.15558,487.201 A 148.01558,148.01558 0 0 0 81.9505,552.09944 148.01558,148.01558 0 0 0 56.40949,635.21663 148.01558,148.01558 0 0 0 204.42511,783.23225 148.01558,148.01558 0 0 0 352.44073,635.21663 148.01558,148.01558 0 0 0 323.28644,547.0096 148.01558,148.01558 0 0 0 204.42511,487.201 a 148.01558,148.01558 0 0 0 -0.26953,0 z" /><g
   id="g71"
   transform="matrix(1.0371655,0,0,1.1656875,1.4565595e-6,-102.86367)"><path
     d="m 114.77318,579.54156 -2.17585,1.702 q -1.90381,-2.13492 -4.56158,-2.39408 -2.56946,-0.44517 -5.73202,0.74267 l -65.98182,23.55469 -1.81547,-2.32094 29.30099,-46.53502 -0.45384,-0.58025 -53.1291,16.07296 -1.9289196,-2.466 37.9554696,-59.38388 q 2.35607,-3.71346 2.50467,-5.46641 0.0919,-1.82546 -1.62884,-4.92195 l 2.17588,-1.70201 20.02693,25.60266 -2.17588,1.702 q -2.15587,-2.7561 -4.03163,-3.51005 -1.78743,-0.93997 -3.96328,0.76203 -0.5077,0.39711 -1.19206,1.16624 -0.62763,0.84165 -1.25523,1.68332 l -23.29209,34.93722 34.65844,-10.39284 5.95799,-9.57056 q 1.13887,-2.87827 0.62537,-4.58092 -0.64275,-1.71844 -2.51495,-4.1119 l 2.17585,-1.702 21.27506,27.19829 -2.17588,1.702 q -2.55299,-3.26378 -4.32462,-4.33302 -1.84417,-1.01252 -3.87499,0.57604 -0.72528,0.56731 -1.35288,1.40899 l -2.46954,3.56839 -21.6929,32.04961 37.25077,-13.35588 q 0.41939,-0.21098 1.73423,-0.77202 1.31488,-0.56089 2.4028,-1.41187 2.466,-1.92895 1.94316,-4.09193 -0.65212,-2.17876 -2.80799,-4.93486 l 2.17585,-1.702 z"
     style="font-style:normal;font-variant:normal;font-weight:normal;font-stretch:normal;font-size:32px;line-height:1.25;font-family:'Gargi-1.2b';-inkscape-font-specification:'Gargi-1.2b';text-align:center;text-anchor:middle;fill:#ffffff;fill-opacity:1;stroke:#000000;stroke-width:13.5545;stroke-miterlimit:4;stroke-dasharray:none;stroke-opacity:1;paint-order:stroke fill markers"
     id="path1104"
     inkscape:export-filename="/home/andrea/Projects/Unity/Up the Drain/Assets/logo.png"
     inkscape:export-xdpi="96"
     inkscape:export-ydpi="96" /><path
     d="m 119.20082,672.6693 -1.75852,2.13047 -27.62505,-22.80183 1.75849,-2.13047 q 3.97686,3.28255 5.86612,3.88675 2.00647,0.46215 3.70635,-1.59728 1.34817,-1.63337 3.09317,-6.64054 0.65041,-2.0899 2.321,-7.87487 L 87.38817,621.81508 q -5.90333,3.24642 -8.99534,5.11199 -3.09202,1.86554 -3.79544,2.71773 -1.87573,2.2725 -0.16471,5.11764 1.0934,1.8577 4.07607,4.31958 l -1.75849,2.13047 -17.25681,-14.24382 1.75852,-2.13047 q 3.60599,2.14064 7.24473,1.20394 2.49682,-0.56587 9.27041,-4.28797 l 57.53084,-31.07766 2.34351,1.93437 -17.95486,60.52007 q -2.98382,9.83511 -3.13377,13.0545 -0.26372,4.08058 2.64787,6.48385 z m -27.77939,-53.13685 16.61765,13.71625 8.52315,-27.82915 z"
     style="font-style:normal;font-variant:normal;font-weight:normal;font-stretch:normal;font-size:32px;line-height:1.25;font-family:'Gargi-1.2b';-inkscape-font-specification:'Gargi-1.2b';text-align:center;text-anchor:middle;fill:#ffffff;fill-opacity:1;stroke:#000000;stroke-width:13.5545;stroke-miterlimit:4;stroke-dasharray:none;stroke-opacity:1;paint-order:stroke fill markers"
     id="path1106"
     inkscape:export-filename="/home/andrea/Projects/Unity/Up the Drain/Assets/logo.png"
     inkscape:export-xdpi="96"
     inkscape:export-ydpi="96" /><path
     d="m 171.25676,702.49645 -1.35946,2.4048 -34.38858,-19.44043 1.35948,-2.4048 q 5.69136,3.21742 8.06492,2.76101 2.99045,-0.42499 6.29851,-6.27666 l 28.68485,-50.74116 q -7.21437,-4.07843 -12.37621,-3.92895 -8.3823,0.23279 -15.41997,9.68813 l -2.8056,-1.58605 11.24174,-19.13726 57.71508,32.62733 -10.76075,19.40914 -2.80561,-1.58605 q 4.50737,-10.77985 0.46492,-18.03669 -2.56837,-4.62526 -9.70259,-8.65837 l -28.68486,50.74119 q -3.30803,5.85168 -2.21035,8.58777 0.91298,2.31434 6.68448,5.57705 z"
     style="font-style:normal;font-variant:normal;font-weight:normal;font-stretch:normal;font-size:32px;line-height:1.25;font-family:'Gargi-1.2b';-inkscape-font-specification:'Gargi-1.2b';text-align:center;text-anchor:middle;fill:#ffffff;fill-opacity:1;stroke:#000000;stroke-width:13.5545;stroke-miterlimit:4;stroke-dasharray:none;stroke-opacity:1;paint-order:stroke fill markers"
     id="path1108"
     inkscape:export-filename="/home/andrea/Projects/Unity/Up the Drain/Assets/logo.png"
     inkscape:export-xdpi="96"
     inkscape:export-ydpi="96" /><path
     d="m 210.76004,646.22995 0.93379,-2.59987 60.05656,21.5707 -7.50146,20.88546 -2.59987,-0.93379 q 2.03309,-11.10861 -2.43483,-16.92053 -3.73249,-4.86291 -15.17183,-8.9716 -4.59308,-1.6497 -6.43313,-1.43003 -1.78451,0.33745 -2.9362,3.54394 l -8.65315,24.09195 q 8.05952,2.89477 12.55316,1.28001 5.40482,-1.97241 9.88638,-10.63611 l 2.68652,0.96493 -12.60626,35.09799 -2.6865,-0.96494 q 2.4084,-9.70186 -0.3086,-14.39569 -2.56804,-4.83603 -10.80089,-7.79306 l -9.05784,25.21856 q -1.21392,3.37982 0.22571,5.36455 1.32858,1.74911 6.44162,3.58557 9.2728,3.33054 16.23082,2.20953 9.26924,-1.5628 17.78425,-10.83248 l 2.85982,1.02716 -11.94138,20.17138 -60.83654,-21.85084 0.93381,-2.59984 q 5.47313,1.37873 7.28875,0.95462 2.95568,-0.6017 4.54314,-5.02146 l 18.08451,-50.35047 q 1.68082,-4.67971 -0.44541,-7.20456 -1.58858,-1.8425 -6.09498,-3.46108 z"
     style="font-style:normal;font-variant:normal;font-weight:normal;font-stretch:normal;font-size:32px;line-height:1.25;font-family:'Gargi-1.2b';-inkscape-font-specification:'Gargi-1.2b';text-align:center;text-anchor:middle;fill:#ffffff;fill-opacity:1;stroke:#000000;stroke-width:13.5545;stroke-miterlimit:4;stroke-dasharray:none;stroke-opacity:1;paint-order:stroke fill markers"
     id="path1110"
     inkscape:export-filename="/home/andrea/Projects/Unity/Up the Drain/Assets/logo.png"
     inkscape:export-xdpi="96"
     inkscape:export-ydpi="96" /><path
     d="m 295.38909,678.25089 -4.70835,27.78098 q 11.34843,1.92332 15.74468,-0.32024 5.32102,-2.7406 7.05974,-12.99958 1.38479,-8.17088 -1.14654,-12.52248 -2.65287,-4.18542 -9.37115,-5.32406 -4.26702,-0.72316 -5.40415,-0.0754 -1.22792,0.63243 -2.17423,3.46069 z m 37.22816,70.75215 -0.46161,2.72362 -22.3337,-3.78511 -16.72989,-37.95201 -2.99598,-0.50776 -3.63128,21.42584 q -1.03091,6.08276 0.76486,8.16163 1.38798,1.72955 7.16608,3.45598 l -0.46162,2.72363 -36.85969,-6.247 0.46159,-2.72363 q 6.20586,0.3046 7.87386,-0.72024 2.39584,-1.46185 3.44216,-7.63539 l 8.17032,-48.20815 q 1.10785,-6.53668 -1.02027,-8.85868 -1.5542,-1.8511 -6.91063,-2.75893 l 0.46159,-2.72362 35.13475,5.95466 q 14.97992,2.53881 22.03217,8.87076 6.97682,6.22578 5.40739,15.48609 -1.47712,8.71562 -8.66315,12.54105 -3.9115,2.13893 -11.55917,3.1777 l 16.61753,34.75751 q 0.76786,1.53106 1.79577,2.07884 1.0279,0.54781 2.29892,0.76321 z"
     style="font-style:normal;font-variant:normal;font-weight:normal;font-stretch:normal;font-size:32px;line-height:1.25;font-family:'Gargi-1.2b';-inkscape-font-specification:'Gargi-1.2b';text-align:center;text-anchor:middle;fill:#ffffff;fill-opacity:1;stroke:#000000;stroke-width:13.5545;stroke-miterlimit:4;stroke-dasharray:none;stroke-opacity:1;paint-order:stroke fill markers"
     id="path1112"
     inkscape:export-filename="/home/andrea/Projects/Unity/Up the Drain/Assets/logo.png"
     inkscape:export-xdpi="96"
     inkscape:export-ydpi="96" /><path
     d="m 490.37128,733.69599 0.47232,2.7218 -36.10903,6.26606 -0.47232,-2.72177 q 4.72978,-1.28806 5.73977,-1.93063 3.59008,-1.9314 2.55098,-7.91933 l -9.52506,-54.88936 -16.07571,70.54691 -2.90322,0.50382 -38.34882,-59.42027 8.51292,50.67247 q 1.0391,5.98793 3.64162,8.05967 2.58678,1.98102 9.30053,0.81598 l 0.47231,2.72177 -25.49407,4.42404 -0.47232,-2.72177 q 6.3471,-1.66216 7.7875,-3.59438 1.4404,-1.9322 0.59024,-6.83144 l -8.97405,-51.71392 q -0.77142,-4.44558 -3.05079,-5.73228 -2.18866,-1.30244 -7.99514,-0.29484 l -0.47231,-2.7218 27.58078,-4.78615 30.68533,47.5725 12.86323,-55.12957 27.3993,-4.75468 0.47235,2.7218 q -5.35287,0.9289 -6.84051,2.58891 -2.08748,2.51179 -0.95394,9.04408 l 8.36002,48.17562 q 1.05487,6.07866 3.34997,7.45609 1.88498,1.16822 7.90812,0.87067 z"
     style="font-style:normal;font-variant:normal;font-weight:normal;font-stretch:normal;font-size:32px;line-height:1.25;font-family:'Gargi-1.2b';-inkscape-font-specification:'Gargi-1.2b';text-align:center;text-anchor:middle;fill:#ffffff;fill-opacity:1;stroke:#000000;stroke-width:13.5545;stroke-miterlimit:4;stroke-dasharray:none;stroke-opacity:1;paint-order:stroke fill markers"
     id="path1114"
     inkscape:export-filename="/home/andrea/Projects/Unity/Up the Drain/Assets/logo.png"
     inkscape:export-xdpi="96"
     inkscape:export-ydpi="96" /><path
     d="m 505.40807,651.29002 q -9.70475,4.00158 -9.89386,16.82869 -0.27079,9.97227 5.34559,23.59296 6.91497,16.77047 14.81149,22.87715 7.93165,6.1918 16.87021,2.50616 11.23708,-4.63339 10.12302,-19.41326 -0.67545,-8.88494 -5.62476,-20.88817 -5.58115,-13.53557 -12.75185,-20.53911 -9.08996,-9.0011 -18.87984,-4.96442 z m -1.36894,-3.32006 q 15.23813,-6.28315 29.45522,-0.79058 14.93849,5.79275 21.67796,22.13757 6.59906,16.00431 0.56062,30.34688 -6.03843,14.34256 -21.78736,20.83633 -15.83406,6.52888 -30.22665,0.61066 -14.27238,-5.8682 -20.90653,-21.95764 -6.7395,-16.34483 -0.49568,-30.67245 6.39913,-14.19249 21.72242,-20.51077 z"
     style="font-style:normal;font-variant:normal;font-weight:normal;font-stretch:normal;font-size:32px;line-height:1.25;font-family:'Gargi-1.2b';-inkscape-font-specification:'Gargi-1.2b';text-align:center;text-anchor:middle;fill:#ffffff;fill-opacity:1;stroke:#000000;stroke-width:13.5545;stroke-miterlimit:4;stroke-dasharray:none;stroke-opacity:1;paint-order:stroke fill markers"
     id="path1116"
     inkscape:export-filename="/home/andrea/Projects/Unity/Up the Drain/Assets/logo.png"
     inkscape:export-xdpi="96"
     inkscape:export-ydpi="96" /><path
     d="m 574.34739,700.83452 -1.51736,-2.30842 q 4.33976,-3.62394 5.06728,-5.53465 1.06601,-2.90458 -1.76638,-7.21363 L 547.35166,641.9947 q -6.49949,-2.00883 -9.12912,-2.15363 -1.91504,-0.0636 -3.06927,0.69517 l -1.51736,-2.30844 19.46772,-12.79638 57.90641,18.3564 -18.12921,-28.08369 q -3.13586,-4.77074 -5.86235,-5.73343 -3.46523,-1.24843 -8.77461,2.2415 l -1.51737,-2.30842 19.85246,-13.04928 1.51734,2.30841 q -4.33974,3.62391 -4.63626,6.0227 -0.0919,2.3746 2.33571,6.06808 l 35.75909,54.40187 -2.61622,1.71965 -74.01663,-23.08382 24.12383,37.03596 q 3.28761,5.0016 6.19434,5.73561 2.9331,0.60647 8.59655,-2.34481 l 1.51734,2.30842 z"
     style="font-style:normal;font-variant:normal;font-weight:normal;font-stretch:normal;font-size:32px;line-height:1.25;font-family:'Gargi-1.2b';-inkscape-font-specification:'Gargi-1.2b';text-align:center;text-anchor:middle;fill:#ffffff;fill-opacity:1;stroke:#000000;stroke-width:13.5545;stroke-miterlimit:4;stroke-dasharray:none;stroke-opacity:1;paint-order:stroke fill markers"
     id="path1118"
     inkscape:export-filename="/home/andrea/Projects/Unity/Up the Drain/Assets/logo.png"
     inkscape:export-xdpi="96"
     inkscape:export-ydpi="96" /><path
     d="m 698.94703,596.87497 1.92427,1.98202 -26.62514,25.84929 -1.92426,-1.98202 q 3.69975,-3.59197 4.63434,-5.14101 0.93458,-1.54901 -0.0265,-2.54002 -1.15458,-1.18923 -5.24945,-1.7056 l -31.91542,-3.92319 -0.18976,4.03458 15.07341,15.52583 q 3.07881,3.17122 6.14935,2.50031 2.02498,-0.42588 6.2398,-3.61952 l 1.92427,1.98202 -26.6912,25.91343 -1.92427,-1.98202 q 3.57918,-4.24494 3.99675,-6.06209 0.6934,-2.85499 -2.57783,-6.22443 l -37.26661,-38.38512 q -2.62984,-2.70878 -5.10188,-2.87556 -2.92683,-0.23867 -7.22121,3.93063 l -1.92427,-1.98202 26.82336,-26.04174 1.92426,1.98202 q -3.83191,3.72024 -4.19113,5.99409 -0.44067,3.3797 4.17758,8.13652 l 16.48452,16.97932 0.37228,-33.9866 q 0.1046,-2.66835 0.0539,-3.64586 -0.16354,-2.15136 -1.44638,-3.47269 -1.34699,-1.38742 -3.24371,-0.82939 -1.83448,0.75431 -5.99671,4.79525 l -1.92426,-1.98202 22.92538,-22.25734 1.92426,1.98204 q -6.80494,6.60664 -7.71073,19.4217 -0.17444,2.99289 -0.27846,23.24335 l 53.30119,6.51855 q 1.75495,0.2213 2.93455,-0.28228 1.17956,-0.50349 2.56698,-1.85048 z"
     style="font-style:normal;font-variant:normal;font-weight:normal;font-stretch:normal;font-size:32px;line-height:1.25;font-family:'Gargi-1.2b';-inkscape-font-specification:'Gargi-1.2b';text-align:center;text-anchor:middle;fill:#ffffff;fill-opacity:1;stroke:#000000;stroke-width:13.5545;stroke-miterlimit:4;stroke-dasharray:none;stroke-opacity:1;paint-order:stroke fill markers"
     id="path1120"
     inkscape:export-filename="/home/andrea/Projects/Unity/Up the Drain/Assets/logo.png"
     inkscape:export-xdpi="96"
     inkscape:export-ydpi="96" /><path
     d="m 643.66268,554.58675 -2.25129,-1.60093 36.98097,-52.00474 18.08534,12.86062 -1.6009,2.25128 q -10.14748,-4.95614 -16.94968,-2.22288 -5.68991,2.28131 -12.73391,12.18699 -2.82826,3.97727 -3.11343,5.8083 -0.15677,1.80938 2.61984,3.78383 l 20.86195,14.83509 q 4.96279,-6.979 4.62093,-11.74173 -0.44026,-5.73661 -7.57269,-12.39039 l 1.65427,-2.32633 30.3924,21.61227 -1.65427,2.32634 q -8.69164,-4.93781 -13.94465,-3.5887 -5.34969,1.16737 -10.41924,8.29644 l 21.83748,15.52881 q 2.92668,2.08117 5.22632,1.23069 2.04283,-0.80714 5.19128,-5.23468 5.70991,-8.02959 6.50868,-15.03193 0.99723,-9.347 -5.62991,-20.04809 l 1.76099,-2.4764 16.19929,16.94296 -37.46127,52.68013 -2.25128,-1.60091 q 2.80492,-4.89779 2.88663,-6.76053 0.21835,-3.00839 -3.60873,-5.72992 L 655.69785,551.1681 q -4.05232,-2.88165 -7.05735,-1.51586 -2.20293,1.03226 -4.97782,4.93451 z"
     style="font-style:normal;font-variant:normal;font-weight:normal;font-stretch:normal;font-size:32px;line-height:1.25;font-family:'Gargi-1.2b';-inkscape-font-specification:'Gargi-1.2b';text-align:center;text-anchor:middle;fill:#ffffff;fill-opacity:1;stroke:#000000;stroke-width:13.5545;stroke-miterlimit:4;stroke-dasharray:none;stroke-opacity:1;paint-order:stroke fill markers"
     id="path1122"
     inkscape:export-filename="/home/andrea/Projects/Unity/Up the Drain/Assets/logo.png"
     inkscape:export-xdpi="96"
     inkscape:export-ydpi="96" /></g><g
   id="g123"
   transform="translate(-27.07489,403.71663)">
</g>
<g
   id="g125"
   transform="translate(-27.07489,403.71663)">
</g>
<g
   id="g127"
   transform="translate(-27.07489,403.71663)">
</g>
<g
   id="g129"
   transform="translate(-27.07489,403.71663)">
</g>
<g
   id="g131"
   transform="translate(-27.07489,403.71663)">
</g>
<g
   id="g133"
   transform="translate(-27.07489,403.71663)">
</g>
<g
   id="g135"
   transform="translate(-27.07489,403.71663)">
</g>
<g
   id="g137"
   transform="translate(-27.07489,403.71663)">
</g>
<g
   id="g139"
   transform="translate(-27.07489,403.71663)">
</g>
<g
   id="g141"
   transform="translate(-27.07489,403.71663)">
</g>
<g
   id="g143"
   transform="translate(-27.07489,403.71663)">
</g>
<g
   id="g145"
   transform="translate(-27.07489,403.71663)">
</g>
<g
   id="g147"
   transform="translate(-27.07489,403.71663)">
</g>
<g
   id="g149"
   transform="translate(-27.07489,403.71663)">
</g>
<g
   id="g151"
   transform="translate(-27.07489,403.71663)">
</g>
<path
   id="path160"
   style="fill:#1239e6;fill-opacity:1;stroke:#000000;stroke-width:31.5799;stroke-miterlimit:4;stroke-dasharray:none;stroke-opacity:1;paint-order:stroke fill markers"
   d="m 636.61477,144.30529 c -1.06745,1.0599 -2.13404,2.51765 -3.20149,3.46161 -2.59863,2.29803 -5.1974,4.21463 -7.79595,5.55534 -2.59851,1.34073 -5.19758,2.10587 -7.79595,2.10634 -2.59839,4.9e-4 -5.19322,-0.76196 -7.79176,-2.10213 -2.59855,-1.34017 -5.19732,-3.25757 -7.79598,-5.55536 -5.19727,-4.59561 -10.39435,-10.72276 -15.59191,-16.85069 -5.19755,-6.12792 -10.39844,-12.25458 -15.59611,-16.85068 -2.59884,-2.29806 -5.197,-4.21464 -7.79595,-5.55537 -2.59899,-1.34073 -5.19679,-2.10584 -7.79598,-2.10633 -2.59916,-5e-4 -5.19697,0.76614 -7.79595,2.10633 -2.59899,1.34019 -5.2013,3.25334 -7.80014,5.55118 -5.19776,4.59565 -10.39443,10.72282 -15.59196,16.85068 -5.1975,6.12786 -10.39461,12.25461 -15.5919,16.85069 -2.59863,2.29803 -5.19744,4.21463 -7.79598,5.55534 -2.59851,1.34073 -5.19756,2.10587 -7.79595,2.10634 -2.5984,4.9e-4 -5.19741,-0.76196 -7.79595,-2.10213 -2.59855,-1.34017 -5.19732,-3.25757 -7.79595,-5.55536 -5.19729,-4.59561 -10.39438,-10.72276 -15.59194,-16.85069 -5.19755,-6.12792 -10.39422,-12.25458 -15.59193,-16.85068 -2.59883,-2.29806 -5.19696,-4.21464 -7.79595,-5.55537 -2.59898,-1.34073 -5.19676,-2.10584 -7.79595,-2.10633 -2.59919,-5e-4 -5.20118,0.76614 -7.80016,2.10633 -2.59899,1.34019 -5.19712,3.25334 -7.79595,5.55118 -5.19774,4.59565 -10.39444,10.72282 -15.59194,16.85068 -5.19749,6.12786 -10.39464,12.25461 -15.5919,16.85069 -2.59866,2.29803 -5.19744,4.21463 -7.79598,5.55534 -2.59854,1.34073 -5.19755,2.10587 -7.79595,2.10634 -2.59839,4.9e-4 -5.19744,-0.76196 -7.79595,-2.10213 -2.59854,-1.34017 -5.19735,-3.25757 -7.79598,-5.55536 -5.19729,-4.59561 -10.39435,-10.72276 -15.5919,-16.85069 -5.19759,-6.12792 -10.39426,-12.25458 -15.59193,-16.85068 -2.59887,-2.29806 -5.197,-4.21464 -7.79595,-5.55537 -2.59899,-1.34073 -5.19679,-2.10584 -7.79598,-2.10633 -2.59916,-5e-4 -5.20115,0.76614 -7.80014,2.10633 -2.59901,1.34019 -5.19711,3.25334 -7.79597,5.55118 -5.19773,4.59565 -10.39442,10.72282 -15.59191,16.85068 -5.1975,6.12786 -10.39466,12.25461 -15.59194,16.85069 -2.59862,2.29803 -5.19741,4.21463 -7.79595,5.55534 -2.59853,1.34073 -5.19756,2.10587 -7.79596,2.10634 -2.59839,4.9e-4 -5.19744,-0.76196 -7.79595,-2.10213 -2.59854,-1.34017 -5.19733,-3.25757 -7.79597,-5.55536 -5.19728,-4.59561 -10.39435,-10.72276 -15.59192,-16.85069 -5.19756,-6.12792 -10.39424,-12.25458 -15.59193,-16.85068 -2.59884,-2.29806 -5.19699,-4.21464 -7.79595,-5.55537 -2.59898,-1.34073 -5.201,-2.10584 -7.80016,-2.10633 -2.59917,-5e-4 -5.19698,0.76614 -7.79596,2.10633 -2.59899,1.34019 -5.19709,3.25334 -7.79595,5.55118 -5.19774,4.59565 -10.39442,10.72282 -15.59194,16.85068 -5.1975,6.12786 -10.39463,12.25461 -15.59191,16.85069 -2.59865,2.29803 -5.19744,4.21463 -7.79595,5.55534 -2.59853,1.34073 -5.19758,2.10587 -7.79597,2.10634 -0.23614,4e-5 -0.47297,-0.17639 -0.70911,-0.18882 A 317.98111,317.98111 0 0 0 63.2844,333.8 317.98111,317.98111 0 0 0 381.26558,651.78116 317.98111,317.98111 0 0 0 699.24677,333.8 317.98111,317.98111 0 0 0 636.61477,144.30529 Z"
   inkscape:export-filename="/home/andrea/Projects/Unity/Up the Drain/Assets/logo.png"
   inkscape:export-xdpi="96"
   inkscape:export-ydpi="96" /><path
   id="path1057"
   style="fill:#ffffff;fill-opacity:1;stroke:#000000;stroke-width:31.5799;stroke-miterlimit:4;stroke-dasharray:none;stroke-opacity:1;paint-order:stroke fill markers"
   d="M 380.68657,15.8188 A 317.98111,317.98111 0 0 0 118.15403,155.23976 c 0.23614,0.013 0.47297,0.18885 0.70911,0.18885 2.59839,-4.7e-4 5.19744,-0.76561 7.79597,-2.10634 2.59851,-1.3407 5.1973,-3.25731 7.79595,-5.55534 5.19728,-4.59608 10.39441,-10.72282 15.59191,-16.85068 5.19752,-6.12787 10.3942,-12.25504 15.59194,-16.85069 2.59886,-2.29784 5.19696,-4.21098 7.79595,-5.55117 2.59898,-1.34019 5.19679,-2.10684 7.79596,-2.10634 2.59916,4.9e-4 5.20118,0.76561 7.80016,2.10634 2.59896,1.34073 5.19711,3.25731 7.79595,5.55536 5.19769,4.5961 10.39437,10.72276 15.59193,16.85068 5.19757,6.12793 10.39464,12.25508 15.59192,16.85069 2.59864,2.2978 5.19743,4.21519 7.79597,5.55536 2.59851,1.34017 5.19756,2.10262 7.79595,2.10213 2.5984,-4.7e-4 5.19743,-0.76561 7.79596,-2.10634 2.59854,-1.3407 5.19733,-3.25731 7.79595,-5.55534 5.19728,-4.59608 10.39444,-10.72282 15.59194,-16.85068 5.19749,-6.12787 10.39418,-12.25504 15.59191,-16.85069 2.59886,-2.29784 5.19696,-4.21098 7.79597,-5.55117 2.59899,-1.34019 5.20098,-2.10684 7.80014,-2.10634 2.59919,4.9e-4 5.19699,0.76561 7.79598,2.10634 2.59895,1.34073 5.19708,3.25731 7.79595,5.55536 5.19767,4.5961 10.39434,10.72276 15.59193,16.85068 5.19755,6.12793 10.39461,12.25508 15.5919,16.85069 2.59863,2.2978 5.19744,4.21519 7.79598,5.55536 2.59851,1.34017 5.19756,2.10262 7.79595,2.10213 2.5984,-4.7e-4 5.19741,-0.76561 7.79595,-2.10634 2.59854,-1.3407 5.19732,-3.25731 7.79598,-5.55534 5.19726,-4.59608 10.39441,-10.72282 15.5919,-16.85068 5.1975,-6.12787 10.3942,-12.25504 15.59194,-16.85069 2.59883,-2.29784 5.19696,-4.21098 7.79595,-5.55117 2.59898,-1.34019 5.20097,-2.10684 7.80016,-2.10634 2.59919,4.9e-4 5.19697,0.76561 7.79595,2.10634 2.59899,1.34073 5.19712,3.25731 7.79595,5.55536 5.19771,4.5961 10.39438,10.72276 15.59193,16.85068 5.19756,6.12793 10.39465,12.25508 15.59194,16.85069 2.59863,2.2978 5.1974,4.21519 7.79595,5.55536 2.59854,1.34017 5.19755,2.10262 7.79595,2.10213 2.59839,-4.7e-4 5.19744,-0.76561 7.79595,-2.10634 2.59854,-1.3407 5.19735,-3.25731 7.79598,-5.55534 5.19729,-4.59608 10.3944,-10.72282 15.5919,-16.85068 5.19753,-6.12787 10.3942,-12.25504 15.59196,-16.85069 2.59884,-2.29784 5.20115,-4.21098 7.80014,-5.55117 2.59898,-1.34019 5.19679,-2.10684 7.79595,-2.10634 2.59919,4.9e-4 5.19699,0.76561 7.79598,2.10634 2.59895,1.34073 5.19711,3.25731 7.79595,5.55536 5.19767,4.5961 10.39856,10.72276 15.59611,16.85068 5.19756,6.12793 10.39464,12.25508 15.59191,16.85069 2.59866,2.2978 5.19743,4.21519 7.79598,5.55536 2.59854,1.34017 5.19337,2.10262 7.79176,2.10213 2.59837,-4.7e-4 5.19744,-0.76561 7.79595,-2.10634 2.59855,-1.3407 5.19732,-3.25731 7.79595,-5.55534 1.06745,-0.94396 2.13404,-2.4017 3.20149,-3.46161 A 317.98111,317.98111 0 0 0 381.26558,15.81881 a 317.98111,317.98111 0 0 0 -0.57901,0 z"
   inkscape:export-filename="/home/andrea/Projects/Unity/Up the Drain/Assets/logo.png"
   inkscape:export-xdpi="96"
   inkscape:export-ydpi="96" /><path
   d="m 619.8847,315.43037 c -9.56458,-6.58651 -21.92812,-10.08492 -35.75635,-10.12007 -0.0693,0 -0.13702,0 -0.20626,0 -8.14867,0 -16.62493,1.179 -24.53666,3.37713 C 525.88841,241.2649 456.79601,198.10696 381.26564,198.10696 c -75.53037,0 -144.62276,43.15794 -178.11976,110.58162 -7.91286,-2.19816 -16.38687,-3.37716 -24.53666,-3.37716 -0.0692,0 -0.13832,0 -0.20632,0 -13.82823,0.0342 -26.19179,3.53359 -35.75637,10.12007 -15.80644,10.88528 -23.82019,29.19595 -23.82019,54.423 0,60.15018 45.80274,101.4535 86.25241,119.29029 16.92421,32.32936 42.27823,59.33508 73.49547,78.2534 14.37805,42.93687 54.97736,73.9648 102.69142,73.9648 47.72428,0 88.33152,-31.04151 102.70051,-73.99429 0.14291,-0.076 0.28789,-0.14733 0.4285,-0.23249 31.01434,-18.90471 56.2187,-45.82542 73.05676,-77.99266 40.4508,-17.83567 86.25356,-59.13899 86.25356,-119.28917 0,-25.22705 -8.01377,-43.53771 -23.82021,-54.42412 z M 458.68574,443.9576 c -21.69914,-29.875 -49.19459,-46.32876 -77.42016,-46.32876 -28.22554,0 -55.72102,16.45376 -77.42016,46.32876 -7.56709,10.41709 -13.93252,21.87034 -18.88429,33.70447 -4.47677,-20.72988 -11.87722,-39.86811 -22.0415,-56.65401 -7.87205,-13.00179 -10.77078,-27.98748 -8.38332,-43.3382 4.21376,-27.0953 26.10109,-48.87833 53.2236,-52.97078 15.55476,-2.34667 30.69008,0.71644 43.7701,8.85717 18.34129,11.4181 41.12985,11.41583 59.47114,0 13.08116,-8.13958 28.21761,-11.20496 43.77011,-8.85717 27.12253,4.09133 49.00984,25.87436 53.22361,52.97078 2.38747,15.35072 -0.51127,30.33641 -8.38334,43.3382 -10.16427,16.78705 -17.56472,35.92413 -22.04148,56.65401 -4.95177,-11.83301 -11.3172,-23.28626 -18.88431,-33.70447 z m -77.42016,180.40069 c -50.32032,0 -91.25858,-40.93829 -91.25858,-91.25861 0,-25.38576 10.57465,-55.71421 27.59637,-79.14783 24.84726,-34.21008 50.55157,-39.31829 63.66221,-39.31829 13.11063,0 38.81495,5.10821 63.66224,39.31829 17.02169,23.43362 27.59637,53.76207 27.59637,79.14783 0,50.32032 -40.93826,91.25861 -91.25861,91.25861 z M 548.02282,474.68624 c -1.87732,0.78109 -3.41228,2.20835 -4.32715,4.02559 -12.94509,25.69524 -31.68544,47.83199 -54.67013,64.81175 0.32875,-3.43156 0.50334,-6.90731 0.50334,-10.42275 v -6.86199 c 0,-36.47055 8.51596,-69.81223 24.6285,-96.42234 9.97157,-16.46849 13.65137,-35.40267 10.64039,-54.75856 -5.344,-34.36198 -33.09796,-61.98328 -67.49052,-67.172 -19.32643,-2.91686 -38.96461,1.07358 -55.29137,11.23443 -12.99386,8.08632 -28.50783,8.08632 -41.50057,0 -16.32679,-10.15973 -35.9627,-14.14902 -55.29137,-11.23443 -34.39259,5.18872 -62.14654,32.81002 -67.49055,67.172 -3.01097,19.35474 0.66772,38.28892 10.64041,54.75856 16.11253,26.60896 24.62849,59.95067 24.62849,96.42122 v 6.86196 c 0,3.51771 0.17458,6.99461 0.50447,10.42617 -22.98583,-16.97753 -41.71821,-39.10858 -54.67013,-64.81517 -0.91486,-1.81721 -2.44981,-3.24335 -4.32713,-4.02556 -36.29485,-15.09905 -78.67852,-51.61495 -78.67852,-104.83063 0,-19.29693 5.53787,-32.8973 16.46056,-40.41903 7.75868,-5.34289 27.50795,-11.86136 52.30308,-2.39656 0.24486,0.0928 0.492,0.17238 0.74027,0.24163 0.14285,0.0669 0.28114,0.14055 0.42852,0.20066 4.03692,1.64151 6.15457,3.05742 7.05809,3.75577 1.54856,1.19598 3.37713,1.77414 5.19323,1.77414 2.54277,0 5.05834,-1.1359 6.73387,-3.30344 2.87153,-3.71496 2.1868,-9.05442 -1.52816,-11.92709 -1.23001,-0.95114 -2.63913,-1.87167 -4.20016,-2.76158 30.86581,-60.95393 93.64266,-99.90718 162.2453,-99.90718 68.60267,0 131.37951,38.95325 162.24531,99.90718 -1.55989,0.88991 -2.96902,1.81044 -4.19903,2.76158 -3.71496,2.87152 -4.39967,8.21098 -1.52927,11.92709 1.67551,2.16754 4.18995,3.30344 6.73387,3.30344 1.81494,0 3.64465,-0.57928 5.19322,-1.77414 0.90464,-0.69947 3.02571,-2.11765 7.06716,-3.75919 0.14733,-0.0601 0.28553,-0.13259 0.42738,-0.19948 0.24486,-0.0693 0.48973,-0.14615 0.73233,-0.23927 24.7974,-9.46253 44.54555,-2.94633 52.30307,2.39655 10.92271,7.52286 16.46057,21.12211 16.46057,40.41904 0,53.21568 -42.38367,89.73158 -78.67737,104.83175 z"
   id="path103"
   style="stroke:#000000;stroke-width:1.1343;stroke-miterlimit:4;stroke-dasharray:none;stroke-opacity:1"
   inkscape:export-filename="/home/andrea/Projects/Unity/Up the Drain/Assets/logo.png"
   inkscape:export-xdpi="96"
   inkscape:export-ydpi="96" /><path
   d="m 424.38499,546.65131 c -11.29339,2.7525 -22.92234,4.37812 -34.61704,4.91435 v -18.46598 c 0,-4.69669 -3.8068,-8.50235 -8.50237,-8.50235 -4.69557,0 -8.50235,3.80566 -8.50235,8.50235 v 18.46598 c -11.75026,-0.53961 -23.43476,-2.17661 -34.77689,-4.95405 -4.56521,-1.1155 -9.16327,1.67666 -10.2799,6.23734 -1.11665,4.56067 1.67551,9.16327 6.23619,10.27993 15.39945,3.76935 31.32041,5.68068 47.32295,5.68068 15.94134,0 31.80333,-1.8966 47.14725,-5.63875 4.56182,-1.11097 7.35852,-5.7113 6.2464,-10.27425 -1.11211,-4.56067 -5.70791,-7.35622 -10.27424,-6.24525 z"
   id="path105"
   style="stroke:#000000;stroke-width:1.1343;stroke-miterlimit:4;stroke-dasharray:none;stroke-opacity:1"
   inkscape:export-filename="/home/andrea/Projects/Unity/Up the Drain/Assets/logo.png"
   inkscape:export-xdpi="96"
   inkscape:export-ydpi="96" /><path
   d="m 398.60132,587.2642 c -11.43624,1.08492 -23.23751,1.08492 -34.67373,0 -4.6729,-0.43304 -8.82317,2.98829 -9.26643,7.66232 -0.44326,4.67518 2.98717,8.82432 7.66232,9.26758 6.2498,0.59175 12.62315,0.89218 18.9421,0.89218 6.31895,0 12.69118,-0.30043 18.93986,-0.89218 4.67515,-0.44326 8.10558,-4.5924 7.66232,-9.26758 -0.44326,-4.67515 -4.60036,-8.09763 -9.26644,-7.66232 z"
   id="path107"
   style="stroke:#000000;stroke-width:1.1343;stroke-miterlimit:4;stroke-dasharray:none;stroke-opacity:1"
   inkscape:export-filename="/home/andrea/Projects/Unity/Up the Drain/Assets/logo.png"
   inkscape:export-xdpi="96"
   inkscape:export-ydpi="96" /><path
   d="m 193.68893,393.12259 c -6.02646,-4.76811 -10.37967,-8.2144 -12.86009,-16.60793 -1.09057,-3.69115 -1.47941,-8.59985 2.86132,-11.02018 3.30912,-1.84329 7.73035,-1.41479 9.8548,0.96022 3.13113,3.49841 8.50575,3.79997 12.00532,0.66659 3.49957,-3.13115 3.79772,-8.50577 0.66659,-12.00533 -7.48774,-8.37087 -20.44533,-10.25046 -30.808,-4.47339 -8.28356,4.61736 -15.49355,15.10585 -10.88981,30.69009 4.00858,13.56524 11.76839,19.70619 18.61448,25.12504 7.63965,6.04574 14.23861,11.26731 17.4593,28.44774 0.76635,4.08565 4.33621,6.93678 8.34705,6.93678 0.51921,0 1.04635,-0.0477 1.5769,-0.14733 4.61508,-0.86499 7.65439,-5.30774 6.78941,-9.92283 -4.39174,-23.43361 -15.05256,-31.86907 -23.61727,-38.64944 z"
   id="path109"
   style="stroke:#000000;stroke-width:1.1343;stroke-miterlimit:4;stroke-dasharray:none;stroke-opacity:1"
   inkscape:export-filename="/home/andrea/Projects/Unity/Up the Drain/Assets/logo.png"
   inkscape:export-xdpi="96"
   inkscape:export-ydpi="96" /><path
   d="m 596.19034,350.64257 c -10.36267,-5.77819 -23.31911,-3.89521 -30.80799,4.47339 -3.13112,3.49956 -2.83298,8.87418 0.66658,12.00533 3.4973,3.13111 8.87419,2.83297 12.00533,-0.66659 2.12446,-2.37386 6.54567,-2.80466 9.85479,-0.96022 4.34188,2.42033 3.95302,7.32903 2.86132,11.02018 -2.48041,8.39353 -6.83361,11.83982 -12.86008,16.60793 -8.56585,6.77922 -19.22554,15.21583 -23.61955,38.64944 -0.86495,4.6151 2.17435,9.05784 6.78941,9.92283 0.52943,0.0999 1.05658,0.14733 1.57692,0.14733 4.01083,0 7.58182,-2.85113 8.34703,-6.93678 3.22069,-17.1793 9.81967,-22.402 17.4593,-28.44774 6.84722,-5.41885 14.60705,-11.55979 18.61449,-25.12504 4.60602,-15.58424 -2.60399,-26.07273 -10.88755,-30.69009 z"
   id="path111"
   style="stroke:#000000;stroke-width:1.1343;stroke-miterlimit:4;stroke-dasharray:none;stroke-opacity:1"
   inkscape:export-filename="/home/andrea/Projects/Unity/Up the Drain/Assets/logo.png"
   inkscape:export-xdpi="96"
   inkscape:export-ydpi="96" /><path
   d="m 317.78135,370.42133 c -4.69557,0 -8.50235,3.80563 -8.50235,8.50235 v 18.13835 c 0,4.69668 3.80678,8.50234 8.50235,8.50234 4.69557,0 8.50234,-3.80566 8.50234,-8.50234 v -18.13835 c 0,-4.69672 -3.80677,-8.50235 -8.50234,-8.50235 z"
   id="path113"
   style="stroke:#000000;stroke-width:1.1343;stroke-miterlimit:4;stroke-dasharray:none;stroke-opacity:1"
   inkscape:export-filename="/home/andrea/Projects/Unity/Up the Drain/Assets/logo.png"
   inkscape:export-xdpi="96"
   inkscape:export-ydpi="96" /><path
   d="m 444.74984,370.42133 c -4.69557,0 -8.50237,3.80563 -8.50237,8.50235 v 18.13835 c 0,4.69668 3.8068,8.50234 8.50237,8.50234 4.69554,0 8.50235,-3.80566 8.50235,-8.50234 v -18.13835 c 0,-4.69672 -3.80681,-8.50235 -8.50235,-8.50235 z"
   id="path115"
   style="stroke:#000000;stroke-width:1.1343;stroke-miterlimit:4;stroke-dasharray:none;stroke-opacity:1"
   inkscape:export-filename="/home/andrea/Projects/Unity/Up the Drain/Assets/logo.png"
   inkscape:export-xdpi="96"
   inkscape:export-ydpi="96" /><path
   d="m 341.18662,486.28911 18.13837,9.06919 c 1.22094,0.61104 2.51781,0.90011 3.79544,0.90011 3.11868,0 6.1217,-1.72313 7.61131,-4.70123 2.10065,-4.20015 0.39791,-9.30724 -3.80224,-11.40789 l -18.13838,-9.06916 c -4.19676,-2.1018 -9.30497,-0.39907 -11.40674,3.80224 -2.10065,4.20015 -0.39792,9.30609 3.80224,11.40674 z"
   id="path117"
   style="stroke:#000000;stroke-width:1.1343;stroke-miterlimit:4;stroke-dasharray:none;stroke-opacity:1"
   inkscape:export-filename="/home/andrea/Projects/Unity/Up the Drain/Assets/logo.png"
   inkscape:export-xdpi="96"
   inkscape:export-ydpi="96" /><path
   d="m 399.41073,496.25841 c 1.27763,0 2.57453,-0.29024 3.79547,-0.90011 l 18.13834,-9.06919 c 4.20019,-2.10065 5.90292,-7.20659 3.80227,-11.40786 -2.09953,-4.19904 -7.20659,-5.90177 -11.40677,-3.80227 l -18.13835,9.06919 c -4.20015,2.10065 -5.90289,7.20659 -3.80224,11.40789 1.48961,2.97922 4.49148,4.70235 7.61128,4.70235 z"
   id="path119"
   style="stroke:#000000;stroke-width:1.1343;stroke-miterlimit:4;stroke-dasharray:none;stroke-opacity:1"
   inkscape:export-filename="/home/andrea/Projects/Unity/Up the Drain/Assets/logo.png"
   inkscape:export-xdpi="96"
   inkscape:export-ydpi="96" /><path
   style="fill:#ffffff;fill-opacity:1;fill-rule:evenodd;stroke:#000000;stroke-width:0.63351;stroke-miterlimit:4;stroke-dasharray:none;stroke-opacity:1;paint-order:stroke fill markers"
   d="m 257.33827,527.80916 c -14.03432,-13.51745 -23.91641,-26.05629 -33.16699,-42.08382 l -6.08794,-10.54793 -10.86906,-5.44961 c -14.78313,-7.41212 -26.15478,-15.48827 -37.17453,-26.40134 -9.77787,-9.68326 -20.53095,-24.70296 -24.77645,-34.60728 -9.40517,-21.94138 -10.74545,-47.38094 -3.39631,-64.46452 8.77708,-20.40286 39.81263,-26.97322 66.26474,-14.02851 3.89988,1.90845 8.56439,3.46992 10.36561,3.46992 8.55534,0 11.89886,-9.9522 5.56468,-16.56367 l -3.25535,-3.39784 5.73942,-9.54949 c 8.32565,-13.85263 16.11481,-23.65293 28.51679,-35.87982 54.12634,-53.36225 135.28836,-66.96222 203.9753,-34.17931 26.88291,12.83067 55.58194,37.58719 71.61333,61.77545 11.2723,17.00776 11.47013,17.55999 7.65749,21.37266 -6.2277,6.22766 -2.63988,16.42202 5.77955,16.42202 2.20083,0 6.36421,-1.3068 9.25196,-2.90405 17.82887,-9.8613 44.43181,-9.35878 58.1417,1.09824 9.79675,7.47238 14.31369,21.86383 13.37053,42.60007 -0.70203,15.43499 -3.26518,25.26173 -10.17105,38.99455 -11.58133,23.03031 -35.02517,45.06448 -60.76155,57.10799 -8.61278,4.0304 -10.84488,6.43992 -18.45443,19.92138 -8.36544,14.82074 -29.145,38.71126 -40.95438,47.08581 l -4.08797,2.89895 0.74394,-20.91304 c 1.30102,-36.57492 8.51239,-62.59164 25.36648,-91.51573 8.78908,-15.08337 12.40957,-39.19966 8.58408,-57.17939 -8.00522,-37.62443 -41.54656,-64.8474 -79.80303,-64.77008 -15.32515,0.0309 -25.18415,2.54862 -40.90231,10.44497 -13.16032,6.61137 -14.2166,6.93179 -22.85363,6.93179 -8.51632,0 -9.81584,-0.37693 -21.82119,-6.32886 -15.88527,-7.87548 -27.93621,-11.07551 -41.60503,-11.0479 -21.79864,0.0442 -40.5922,7.26791 -55.50335,21.33435 -18.47548,17.42882 -26.55651,35.73451 -26.58995,60.23339 -0.0233,16.96096 2.16043,24.67341 12.94654,45.72721 14.58093,28.46103 20.22871,48.76792 22.25281,80.01112 1.46024,22.53982 1.46166,26.64029 0.009,26.64029 -0.65068,0 -6.91006,-5.51609 -13.90969,-12.25797 z m -41.84468,-87.87344 c 3.61627,-3.61628 3.73142,-7.45429 0.53424,-17.80556 -3.39162,-10.98084 -10.30406,-20.65164 -21.40024,-29.93994 -10.71556,-8.96968 -14.80212,-16.16508 -12.66093,-22.29277 1.42172,-4.06876 7.84836,-5.10768 11.4474,-1.8506 3.30285,2.98906 10.06289,2.7411 13.2915,-0.48749 3.24126,-3.24126 3.31793,-10.16896 0.15125,-13.67046 -10.13587,-11.20782 -31.49845,-9.27575 -40.59991,3.67191 -3.25473,4.63015 -3.61049,6.04409 -3.61049,14.34992 0,8.02293 0.51886,10.26859 4.01473,17.37647 3.26232,6.63301 5.84824,9.72019 13.79807,16.47274 11.79938,10.02242 14.82968,14.26648 17.73473,24.83836 1.29237,4.70317 3.28556,8.96105 4.76675,10.18275 3.65629,3.01584 9.03444,2.65308 12.53287,-0.84533 z m 353.20592,0.84533 c 1.5001,-1.22291 3.35297,-5.10577 4.43736,-9.29867 2.81933,-10.90149 5.98466,-15.48497 17.39656,-25.19093 8.39583,-7.14071 11.17753,-10.37828 14.21085,-16.53986 8.587,-17.44265 4.92812,-33.73526 -9.10119,-40.52673 -10.19459,-4.9351 -24.14207,-2.77484 -30.99304,4.80035 -3.20351,3.5422 -3.06926,10.19023 0.27345,13.53277 3.1922,3.19223 9.97996,3.48701 13.19962,0.57326 3.1226,-2.8259 9.44489,-2.66469 11.02145,0.28111 3.34964,6.2589 -1.09544,14.68207 -12.8683,24.38452 -10.49371,8.64826 -17.25162,18.254 -20.70251,29.42667 -3.16803,10.25686 -3.04575,14.10336 0.56307,17.71221 3.49883,3.49879 8.86511,3.85987 12.56283,0.84533 z"
   id="path1060"
   inkscape:export-filename="/home/andrea/Projects/Unity/Up the Drain/Assets/logo.png"
   inkscape:export-xdpi="96"
   inkscape:export-ydpi="96" /><path
   style="fill:#ffffff;fill-opacity:1;fill-rule:evenodd;stroke:#000000;stroke-width:0.63351;stroke-miterlimit:4;stroke-dasharray:none;stroke-opacity:1;paint-order:stroke fill markers"
   d="m 282.88916,464.87839 c -3.06785,-11.6969 -9.9167,-28.32991 -16.54754,-40.18714 -8.04695,-14.38953 -10.91155,-23.49835 -11.07081,-35.203 -0.16133,-11.85466 1.83826,-20.44968 7.13258,-30.65916 9.9674,-19.22096 29.72428,-31.98236 51.47038,-33.24585 12.93065,-0.7513 21.24704,1.1813 35.12356,8.16207 24.69857,12.42501 41.01749,12.58505 63.071,0.61861 5.35797,-2.90728 13.05924,-6.13661 17.11392,-7.1763 40.9557,-10.50178 80.86176,22.61858 78.01891,64.75237 -0.75295,11.15973 -3.63045,19.62702 -11.10648,32.68175 -5.73058,10.00675 -13.40209,28.69759 -16.75214,40.81474 l -2.08951,7.55783 -5.28189,-9.88534 c -17.04497,-31.90084 -42.22883,-55.02426 -68.75843,-63.13294 -41.30255,-12.62397 -85.37744,11.99036 -112.38794,62.76488 -2.96553,5.5746 -5.4922,10.13563 -5.61485,10.13563 -0.12267,0 -1.167,-3.59916 -2.32076,-7.99815 z m 39.14615,-59.32471 c 4.38254,-1.99682 5.58798,-6.00411 5.58798,-18.5761 0,-10.50016 -0.23161,-11.6281 -2.94504,-14.3415 -3.76617,-3.76621 -9.66756,-3.91345 -13.47531,-0.33624 -2.57243,2.41667 -2.77693,3.56942 -2.77693,15.65233 0,12.24896 0.17936,13.22296 2.94504,15.98858 3.21786,3.21789 6.16384,3.66345 10.66426,1.61293 z m 128.8038,-1.56354 c 3.31513,-2.85157 3.36643,-3.10012 3.36643,-16.30378 0,-12.64345 -0.16148,-13.53881 -2.83254,-15.70169 -3.73325,-3.02301 -10.28817,-2.97103 -13.36519,0.10607 -2.11966,2.11966 -2.39967,3.99943 -2.39967,16.11066 0,13.38308 0.0757,13.77041 3.1614,16.1977 4.15796,3.27067 7.94078,3.14249 12.06957,-0.40893 z"
   id="path1062"
   inkscape:export-filename="/home/andrea/Projects/Unity/Up the Drain/Assets/logo.png"
   inkscape:export-xdpi="96"
   inkscape:export-ydpi="96" /><path
   style="fill:#ffffff;fill-opacity:1;fill-rule:evenodd;stroke:#000000;stroke-width:0.63351;stroke-miterlimit:4;stroke-dasharray:none;stroke-opacity:1;paint-order:stroke fill markers"
   d="m 359.59985,620.44393 c -31.92829,-8.1029 -57.63321,-34.01964 -65.80927,-66.35162 -3.48041,-13.76317 -2.62226,-36.34359 1.96938,-51.81989 13.68305,-46.11926 45.42498,-81.12101 77.65822,-85.63359 19.9985,-2.79977 39.01506,4.90622 57.62021,23.34919 20.0091,19.83461 35.32915,51.02015 39.37932,80.16067 2.64654,19.04161 -0.0787,34.88182 -9.19893,53.46853 -4.71567,9.61036 -7.24723,13.01793 -16.49063,22.19721 -12.46844,12.3819 -20.27771,17.38781 -35.20288,22.56574 -14.10206,4.89237 -35.32317,5.76961 -49.92542,2.06376 z m 46.71675,-18.35242 c 3.63546,-4.22711 3.6788,-8.18706 0.13466,-12.3073 l -2.76055,-3.20935 h -22.48356 c -25.59538,0 -27.18759,0.50609 -27.18759,8.64117 0,9.5019 3.79991,10.84067 29.80013,10.4993 l 19.60158,-0.25724 z m 8.29449,-34.99182 c 18.3759,-3.23737 20.99705,-4.73971 20.99705,-12.03467 0,-8.474 -4.88027,-10.86269 -17.10297,-8.37119 -4.78137,0.97465 -12.87782,2.20917 -17.9921,2.74339 l -9.29867,0.9713 v -9.31364 c 0,-10.54135 -1.36459,-14.56892 -5.58802,-16.49325 -4.50044,-2.05052 -7.44639,-1.60496 -10.66428,1.6129 -2.68288,2.6829 -2.94501,3.88967 -2.94501,13.55823 v 10.61316 l -9.40181,-0.90886 c -5.171,-0.49989 -13.52879,-1.76134 -18.57288,-2.80324 -8.1784,-1.68927 -9.54763,-1.69962 -12.6497,-0.0955 -5.72659,2.96133 -6.73254,9.35109 -2.26961,14.41646 6.91058,7.84339 55.80179,11.33482 85.488,6.10488 z M 369.72447,494.6281 c 3.21164,-2.60064 3.80465,-9.48517 1.09797,-12.74655 -2.45752,-2.96113 -22.23964,-12.60449 -25.85648,-12.60449 -4.60664,0 -7.33421,1.89751 -8.80906,6.1283 -2.18767,6.27552 0.21923,9.31223 12.46347,15.72492 11.73338,6.1451 16.79819,6.98453 21.1041,3.49782 z m 44.26179,-3.14164 c 5.89906,-2.96268 11.28749,-6.4367 11.97432,-7.72001 3.34233,-6.24517 -1.24306,-14.48939 -8.05887,-14.48939 -4.03697,0 -21.83814,8.34897 -25.40391,11.91471 -5.59329,5.59329 -1.25176,15.68142 6.7486,15.68142 2.3637,0 8.42438,-2.21492 14.73986,-5.38673 z"
   id="path1064"
   inkscape:export-filename="/home/andrea/Projects/Unity/Up the Drain/Assets/logo.png"
   inkscape:export-xdpi="96"
   inkscape:export-ydpi="96" /></svg>
